<mxfile host="app.diagrams.net" modified="2020-11-25T12:28:19.495Z" agent="5.0 (Windows NT 10.0; Win64; x64) AppleWebKit/537.36 (KHTML, like Gecko) Chrome/86.0.4240.198 Safari/537.36" etag="FWi5P7NbU3VANwDdWHQK" version="13.9.2" type="gitlab">
  <diagram id="ipGFSyqn6LOPKyfGhSGO" name="Page-1">
    <mxGraphModel dx="782" dy="469" grid="1" gridSize="10" guides="1" tooltips="1" connect="1" arrows="1" fold="1" page="1" pageScale="1" pageWidth="827" pageHeight="1169" math="0" shadow="0">
      <root>
        <mxCell id="0" />
        <mxCell id="1" parent="0" />
        <mxCell id="VTl3B-END8V468Y0pN28-3" style="edgeStyle=orthogonalEdgeStyle;rounded=0;orthogonalLoop=1;jettySize=auto;html=1;entryX=0.5;entryY=0;entryDx=0;entryDy=0;" edge="1" parent="1" source="RjbwH6w95x2qjpFZs5uD-1" target="VTl3B-END8V468Y0pN28-2">
          <mxGeometry relative="1" as="geometry" />
        </mxCell>
        <mxCell id="RjbwH6w95x2qjpFZs5uD-1" value="xddddddd" style="ellipse;whiteSpace=wrap;html=1;aspect=fixed;" vertex="1" parent="1">
          <mxGeometry x="50" y="530" width="210" height="210" as="geometry" />
        </mxCell>
        <mxCell id="zafXCS5O1Bqy-LI3ZN6o-2" value="" style="whiteSpace=wrap;html=1;aspect=fixed;" vertex="1" parent="1">
          <mxGeometry x="400" y="410" width="80" height="80" as="geometry" />
        </mxCell>
        <mxCell id="VTl3B-END8V468Y0pN28-2" value="" style="rounded=0;whiteSpace=wrap;html=1;" vertex="1" parent="1">
          <mxGeometry x="550" y="150" width="120" height="60" as="geometry" />
        </mxCell>
        <mxCell id="zafXCS5O1Bqy-LI3ZN6o-3" value="" style="ellipse;shape=cloud;whiteSpace=wrap;html=1;" vertex="1" parent="1">
          <mxGeometry x="520" y="310" width="120" height="80" as="geometry" />
        </mxCell>
        <mxCell id="zafXCS5O1Bqy-LI3ZN6o-4" value="Actor" style="shape=umlActor;verticalLabelPosition=bottom;verticalAlign=top;html=1;outlineConnect=0;" vertex="1" parent="1">
          <mxGeometry x="90" y="250" width="30" height="60" as="geometry" />
        </mxCell>
      </root>
    </mxGraphModel>
  </diagram>
</mxfile>
